<svg width="115" height="48" viewBox="0 0 115 48" fill="none" xmlns="http://www.w3.org/2000/svg">
<path d="M12.342 17.708C9.933 17.708 7.821 18.797 6.831 20.711V18.17H2.244V41.6H6.93V32.624C7.953 34.439 9.999 35.462 12.342 35.462C16.764 35.462 19.965 31.832 19.965 26.585C19.965 21.338 16.764 17.708 12.342 17.708ZM10.956 31.238C8.349 31.238 6.765 29.357 6.765 26.585C6.765 23.813 8.349 21.932 10.956 21.932C13.563 21.932 15.18 23.813 15.18 26.585C15.18 29.357 13.563 31.238 10.956 31.238ZM32.9523 17.84C30.7083 17.84 28.8933 18.995 28.0683 20.942V18.17H23.4813V35H28.1673V26.849C28.1673 23.648 29.5203 22.328 32.3253 22.328C32.9523 22.328 33.6783 22.394 34.3713 22.526V18.071C33.9423 17.906 33.4803 17.84 32.9523 17.84ZM44.7776 35.462C50.2886 35.462 53.7867 31.502 53.7867 26.585C53.7867 21.635 50.2886 17.708 44.7776 17.708C39.2996 17.708 35.8016 21.635 35.8016 26.585C35.8016 31.502 39.2996 35.462 44.7776 35.462ZM44.7776 31.238C42.1706 31.238 40.5536 29.357 40.5536 26.585C40.5536 23.813 42.1706 21.932 44.7776 21.932C47.3846 21.932 49.0016 23.813 49.0016 26.585C49.0016 29.357 47.3846 31.238 44.7776 31.238ZM63.755 35.462C68.342 35.462 71.015 33.284 71.015 29.885C71.015 27.542 69.728 25.892 66.131 25.067L63.227 24.374C61.742 24.044 61.247 23.615 61.247 22.988C61.247 22.163 62.006 21.635 63.623 21.635C65.207 21.635 66.857 22.163 68.474 23.384L70.751 20.282C69.233 18.698 66.659 17.708 63.689 17.708C59.234 17.708 56.594 19.952 56.594 23.153C56.594 25.463 57.98 27.113 61.511 27.938L64.316 28.598C65.735 28.928 66.329 29.39 66.329 30.149C66.329 31.007 65.438 31.568 63.788 31.568C61.709 31.568 59.597 30.71 58.244 29.39L55.967 32.459C57.617 34.34 60.455 35.462 63.755 35.462ZM84.465 17.708C82.056 17.708 79.944 18.797 78.954 20.711V18.17H74.367V41.6H79.053V32.624C80.076 34.439 82.122 35.462 84.465 35.462C88.887 35.462 92.088 31.832 92.088 26.585C92.088 21.338 88.887 17.708 84.465 17.708ZM83.079 31.238C80.472 31.238 78.888 29.357 78.888 26.585C78.888 23.813 80.472 21.932 83.079 21.932C85.686 21.932 87.303 23.813 87.303 26.585C87.303 29.357 85.686 31.238 83.079 31.238ZM107.748 18.17V20.678C106.758 18.797 104.646 17.708 102.237 17.708C97.8484 17.708 94.6474 21.338 94.6474 26.585C94.6474 31.832 97.8484 35.462 102.237 35.462C104.646 35.462 106.758 34.373 107.748 32.492V35H112.368V18.17H107.748ZM103.623 31.238C101.016 31.238 99.3994 29.357 99.3994 26.585C99.3994 23.813 101.016 21.932 103.623 21.932C106.23 21.932 107.847 23.813 107.847 26.585C107.847 29.357 106.23 31.238 103.623 31.238Z" fill="#FFFFFF"/>
</svg>
